<?xml version="1.0" encoding="UTF-8"?>
<svg viewBox="0 0 426.73 746.26" xmlns="http://www.w3.org/2000/svg">
 <path d="m211.77 5c-30.79 24.506-267.46 229.9-88.188 623.22h179.25c179.27-393.32-57.396-598.68-88.188-623.19l-2.875-0.0312z" fill="#ececec" fill-rule="evenodd" stroke="#000" stroke-width="10"/>
 <path d="m219.19 259.65c-37.293 0-67.625 30.363-67.625 67.656s30.332 67.625 67.625 67.625 67.656-30.332 67.656-67.625-30.363-67.656-67.656-67.656zm0 8c32.965 0 59.656 26.692 59.656 59.656 0 32.965-26.691 59.625-59.656 59.625s-59.625-26.66-59.625-59.625c3.1e-5 -32.965 26.66-59.656 59.625-59.656z" fill="#ccc" stroke-linecap="round" stroke-width="8"/>
 <g fill-rule="evenodd">
  <g stroke="#000">
   <g fill="#f00">
    <path d="m92.419 166.48l43.437-79.802 60.609-68.69 17.173-13.132 64.65 67.68 50.508 81.822 4.0406 17.173-241.43-1.0102"/>
    <g stroke-width="10">
     <path d="m68.175 470.54s-107.08-1.3336-42.426 270.72c0 0 6.0609-227.16 62.63-199.15"/>
     <path d="m358.55 470.54s107.08-1.3336 42.426 270.72c0 0-6.0609-227.16-62.63-199.15"/>
    </g>
   </g>
   <path d="m97.47 572.56l26.264 55.558 179.81-1.0102 21.213-54.548h-227.28z" fill="#b3b3b3"/>
  </g>
  <g fill="#d20000">
   <path d="m383.34 497.81l-20.203 50.508-12.122-10.102-14.142 6.0609 19.193-75.761 34.345 17.173s59.599 41.416 13.132 247.49c27.274-213.14-21.213-235.37-20.203-235.37z"/>
   <path d="m22.718 738.23s-10.061-220.37 58.589-221.22c7.5756-0.094299 7.071 24.244 7.071 24.244l-27.274 6.0609-21.213 66.67-17.173 124.25z"/>
  </g>
  <path d="m258.87 572.57c4.0529 12.21 6.448 29.248 5.2812 53.531 0.86221 0.30377 1.7754 0.73004 2.7188 1.2188l36.656-0.2188 17.094-43.938c-0.68954-3.7542-1.4863-7.1047-2.25-10.594h-59.5z" fill="#999"/>
  <g fill="#ccc">
   <path d="m232.85 465.92c-6.8185-0.5051-11.125 0.56247-11.125 0.56247l-5.0625 77.781s24.335-4.8055 35.812 28.312h59.625c-19.366-90.309-59.667-105.21-79.25-106.66z"/>
   <path d="m100.31 577.09l20 50 28 2-8-57-40 5z"/>
  </g>
  <g stroke="#000" stroke-width="10">
   <path d="m211.77 5c-30.79 24.506-267.46 229.9-88.187 623.22h179.25c179.27-393.32-57.397-598.68-88.188-623.19l-2.875-0.0312z" fill="#fff"/>
   <path d="m92.419 168.5h237.39" fill="none"/>
  </g>
 </g>
 <g stroke="#000">
  <g stroke-linecap="round">
   <path d="m276.85 321.3a63.64 63.64 0 1 1 -127.28 0 63.64 63.64 0 1 1 127.28 0z" fill="#fff" stroke-width="8"/>
   <path d="m254.63 321.3a41.416 41.416 0 1 1 -82.832 0 41.416 41.416 0 1 1 82.832 0z" fill="#80e5ff" stroke-width="12.293"/>
  </g>
  <g stroke-width="10">
   <path d="m100.5 573.57h224.25" fill="none"/>
   <path d="m204.12 468.52h18.183v272.74h-18.183v-272.74z" fill="#fff" stroke-linecap="round"/>
  </g>
 </g>
 <g fill="#fff">
  <path d="m314.65 560.44s80.812-185.87 16.162-364.66c3.0305 317.19-83.843 364.66-83.843 364.66h67.68z" fill-rule="evenodd"/>
  <g stroke-linecap="round">
   <rect transform="matrix(.70389 .7103 -.70389 .7103 0 0)" x="360.06" y="32.286" width="34.47" height="83.714" stroke-width="10"/>
   <path d="m254.63 321.3a41.416 41.416 0 1 1 -82.832 0 41.416 41.416 0 1 1 82.832 0z" stroke="#000" stroke-width="12.293"/>
  </g>
  <g fill-rule="evenodd">
   <path d="m305.56 153.35s-31.315-81.822-90.914-125.26c54.548 105.06 26.264 125.26 26.264 125.26h64.65z"/>
   <g stroke="#000" stroke-width="10">
    <path d="m358.55 470.54s107.08-1.3336 42.426 270.72c0 0-6.0609-227.16-62.63-199.15"/>
    <path d="m68.175 470.54s-107.08-1.3336-42.426 270.72c0 0 6.0609-227.16 62.63-199.15"/>
   </g>
   <path d="m106.56 150.32s53.538-104.05 97.985-131.32c44.447-27.274-96.975 133.34-97.985 131.32z"/>
   <path d="m75.027 426.8c-3.1638-1.7567-22.724-145.96 25.714-235.71 29.867-24.039 70.502-11.397 68.571-1.4286-16.727 86.351-75.47 247.59-94.286 237.14z"/>
  </g>
 </g>
</svg>
